<svg xmlns="http://www.w3.org/2000/svg"
     width="1024"
     height="400"
     viewBox="0 312 1024 400"
     preserveAspectRatio="xMidYMid meet">
<g>
<path d="M 0.00 0.00 L 1024.00 0.00 L 1024.00 1024.00 L 0.00 1024.00 ZM 412.50 532.50 C441.48,537.97 472.26,527.82 494.71,505.38 C500.24,499.85 507.22,490.16 524.62,463.84 C557.61,413.92 561.84,408.52 573.50,401.53 C586.27,393.87 587.83,393.64 631.25,393.23 L 670.00 392.85 L 670.00 361.81 L 628.75 362.27 C590.56,362.69 586.91,362.89 579.61,364.87 C564.84,368.87 551.00,377.29 538.18,390.07 C531.19,397.04 522.64,409.33 488.13,462.00 C474.31,483.09 458.70,496.24 442.45,500.47 C428.82,504.02 411.82,501.62 399.96,494.46 C387.86,487.15 377.70,473.30 374.51,459.76 C365.98,423.59 394.34,390.76 431.92,393.31 C453.33,394.76 468.95,404.59 482.00,424.84 C485.58,430.38 488.79,434.93 489.14,434.96 C489.49,434.98 493.91,428.63 498.96,420.85 L 508.14 406.69 L 503.52 399.92 C494.66,386.96 479.98,374.88 465.65,368.78 C452.62,363.24 444.85,361.72 429.50,361.70 C398.54,361.67 378.06,371.63 358.27,396.32 C336.98,422.89 335.38,465.89 354.64,494.11 C361.93,504.79 375.96,517.71 385.85,522.86 C395.85,528.07 403.30,530.76 412.50,532.50 ZM 244.66 536.61 C249.78,538.53 274.96,537.86 283.50,535.57 C302.99,530.36 318.73,517.27 328.06,498.50 C334.82,484.90 335.08,482.21 334.73,428.72 C334.56,402.75 334.12,379.99 333.75,378.15 C332.84,373.64 328.91,367.13 325.01,363.66 C318.25,357.65 317.27,357.50 285.00,357.50 C255.69,357.50 255.48,357.52 252.23,359.83 C247.67,363.08 245.00,368.77 245.00,375.21 C245.01,381.72 247.34,385.87 253.13,389.71 L 257.35 392.50 L 278.17 392.81 L 299.00 393.11 L 299.00 434.02 C299.00,472.83 298.89,475.21 296.95,480.41 C294.12,487.97 287.02,495.60 279.52,499.15 C273.83,501.84 272.77,502.00 259.96,502.00 C247.91,502.00 245.93,502.25 241.97,504.25 C228.01,511.30 229.64,530.99 244.66,536.61 ZM 730.16 537.84 C733.65,538.24 747.08,538.40 760.00,538.18 C781.72,537.82 783.80,537.63 787.43,535.64 C798.82,529.43 798.56,510.90 787.00,505.00 C783.39,503.16 781.09,503.00 757.79,502.99 C733.36,502.98 732.33,502.90 727.46,500.63 C722.07,498.12 717.53,493.50 715.35,488.28 C714.27,485.72 714.00,473.98 714.00,430.24 L 714.00 375.42 L 711.75 370.97 C704.93,357.46 686.07,358.37 680.02,372.50 C678.48,376.09 678.28,382.00 678.09,430.00 C677.87,486.72 678.10,490.35 682.79,502.70 C685.21,509.07 691.73,518.62 696.76,523.16 C704.99,530.60 718.34,536.47 730.16,537.84 ZM 281.39 529.03 C275.59,530.51 270.34,531.00 260.22,531.00 L 246.76 531.00 L 242.88 527.12 C240.01,524.24 239.00,522.41 239.00,520.07 C239.00,516.19 241.35,511.42 243.94,510.03 C245.00,509.46 251.48,509.00 258.33,509.00 C267.91,509.00 272.27,508.54 277.19,507.02 C284.96,504.62 291.85,500.21 295.62,495.22 C297.16,493.17 298.97,490.94 299.64,490.25 C300.31,489.56 301.90,486.41 303.18,483.25 C305.47,477.57 305.50,476.96 305.80,431.75 L 306.09 386.00 L 283.50 386.00 C258.45,386.00 256.56,385.61 252.96,379.70 C250.63,375.88 250.49,372.89 252.45,369.09 C254.99,364.19 257.62,363.78 286.31,363.78 C315.33,363.77 315.62,363.83 321.70,370.16 C322.86,371.38 323.81,372.34 324.59,373.43 C328.00,378.23 328.00,385.47 328.00,427.34 L 328.00 429.57 C328.00,483.82 327.92,484.58 321.17,497.50 C316.09,507.23 304.90,518.75 296.02,523.42 C292.22,525.42 285.63,527.94 281.39,529.03 ZM 782.96 530.52 C779.00,532.57 735.55,532.50 726.00,530.43 C705.89,526.08 689.71,509.91 686.03,490.50 C685.24,486.34 684.99,467.56 685.20,429.27 L 685.50 374.04 L 688.13 371.41 C689.94,369.60 692.20,368.62 695.36,368.26 C699.59,367.79 700.22,368.02 703.47,371.27 L 707.00 374.80 L 707.25 395.65 C707.39,407.12 707.50,432.48 707.50,452.00 L 707.50 487.50 L 710.30 493.21 C713.37,499.45 718.10,503.78 725.67,507.27 C730.17,509.34 732.32,509.52 757.10,509.99 C785.75,510.54 785.67,510.52 788.57,516.13 C791.44,521.68 789.26,527.26 782.96,530.52 ZM 588.07 531.91 C590.51,532.39 609.94,532.83 631.25,532.89 L 670.00 533.00 L 670.00 502.00 L 633.73 502.00 C600.12,502.00 596.91,501.85 589.99,499.93 C585.88,498.79 579.90,496.47 576.71,494.76 C568.72,490.51 558.26,479.98 550.95,468.83 C547.58,463.70 544.69,459.37 544.54,459.21 C544.21,458.87 525.00,487.78 525.00,488.61 C525.00,488.91 526.97,491.71 529.39,494.83 C534.73,501.74 545.90,512.54 552.00,516.68 C561.64,523.23 577.11,529.76 588.07,531.91 ZM 559.00 432.00 L 559.00 463.00 L 670.00 463.00 L 670.00 432.00 ZM 248.25 522.36 C250.05,523.13 276.93,522.52 280.50,521.63 C291.60,518.89 303.88,509.95 310.83,499.56 C320.43,485.21 320.35,485.73 320.44,430.50 C320.52,384.31 320.44,382.35 318.51,378.57 C314.86,371.44 312.92,371.00 285.39,371.00 C259.85,371.00 258.33,371.27 259.18,375.70 C259.50,377.37 261.36,377.52 284.19,377.77 L 308.85 378.03 L 311.48 381.16 L 314.11 384.28 L 313.78 430.89 C313.47,475.19 313.35,477.81 311.34,483.71 C306.80,497.10 294.59,509.59 281.83,513.90 C276.80,515.60 273.17,516.00 262.89,516.00 C255.89,516.00 249.45,516.27 248.58,516.61 C246.71,517.33 246.46,521.60 248.25,522.36 ZM 723.41 521.96 C728.86,523.70 732.17,523.88 755.00,523.70 L 780.50 523.50 L 780.50 517.50 L 727.50 516.50 L 721.29 513.63 C713.08,509.84 705.15,501.57 701.97,493.50 L 699.61 487.50 L 699.45 433.00 C699.36,403.02 699.23,377.91 699.15,377.18 C699.05,376.36 697.97,375.99 696.25,376.18 L 693.50 376.50 L 693.24 432.47 C692.99,486.64 693.05,488.64 695.04,494.62 C699.34,507.54 709.81,517.63 723.41,521.96 ZM 965.12 986.58 C966.36,989.56 967.67,992.00 968.05,992.00 C968.42,992.00 969.50,989.99 970.44,987.53 C972.98,980.86 980.00,973.61 986.51,970.91 C989.53,969.66 992.00,968.33 992.00,967.95 C992.00,967.58 989.88,966.46 987.28,965.47 C980.69,962.95 973.62,956.04 970.88,949.42 C969.64,946.44 968.33,944.00 967.95,944.00 C967.58,944.00 966.50,946.01 965.56,948.47 C963.02,955.14 956.00,962.39 949.49,965.09 C946.47,966.34 944.00,967.67 944.00,968.05 C944.00,968.42 946.12,969.54 948.72,970.53 C955.31,973.05 962.38,979.96 965.12,986.58 ZM 457.81 652.50 C458.05,662.58 458.39,665.00 459.56,665.00 C460.57,665.00 461.00,663.82 461.00,661.00 L 461.00 657.00 L 466.08 657.00 C470.35,657.00 471.61,656.54 474.08,654.08 C477.69,650.46 478.00,645.69 474.83,642.31 C472.92,640.29 471.70,640.00 465.08,640.00 L 457.50 640.00 ZM 695.08 662.41 C698.64,665.41 703.41,665.80 706.86,663.38 C709.74,661.37 708.28,659.24 705.17,660.91 C702.10,662.55 700.40,662.25 697.31,659.53 L 694.50 657.06 L 701.78 657.03 C709.98,657.00 711.09,656.05 708.98,650.94 C707.46,647.27 705.28,646.00 700.52,646.00 C695.25,646.00 692.00,649.57 692.00,655.37 C692.00,659.11 692.49,660.23 695.08,662.41 ZM 608.78 663.44 C612.37,665.39 616.02,665.37 618.86,663.38 C621.98,661.20 620.25,659.70 616.31,661.19 C613.71,662.17 612.77,662.08 610.60,660.66 C606.43,657.92 607.52,657.00 614.94,657.00 C618.76,657.00 622.15,656.57 622.47,656.04 C623.40,654.54 620.38,648.27 618.15,647.08 C610.05,642.75 600.71,651.98 605.03,660.05 C605.59,661.10 607.28,662.63 608.78,663.44 ZM 497.76 663.93 C499.95,665.20 503.06,665.25 504.97,664.04 C505.89,663.46 506.89,663.50 507.67,664.14 C509.98,666.06 511.00,663.91 511.00,657.16 C511.00,648.16 509.49,645.99 503.19,646.02 C500.61,646.02 497.88,646.42 497.12,646.90 C495.04,648.22 496.61,649.80 499.46,649.25 C503.47,648.49 507.00,649.78 507.00,652.02 C507.00,653.73 506.32,654.00 502.02,654.00 C497.85,654.00 496.79,654.40 495.45,656.43 C493.68,659.14 494.59,662.08 497.76,663.93 ZM 558.00 640.00 L 558.00 665.08 L 567.17 664.79 C573.40,664.59 576.47,664.10 576.75,663.25 C577.05,662.36 575.65,662.00 571.83,661.99 C563.39,661.96 562.00,661.31 562.00,657.38 L 562.00 654.00 L 568.00 654.00 C572.67,654.00 574.00,653.67 574.00,652.50 C574.00,651.33 572.67,651.00 568.00,651.00 L 562.00 651.00 L 562.00 643.09 L 568.67 642.80 C572.89,642.61 575.49,642.04 575.75,641.25 C576.06,640.31 573.90,640.00 567.08,640.00 ZM 358.00 651.57 C358.00,663.96 358.15,665.12 359.75,664.81 C361.16,664.55 361.60,663.12 362.00,657.51 C362.46,651.04 362.69,650.47 365.19,649.60 C369.61,648.05 371.00,650.09 371.00,658.12 C371.00,664.33 371.19,665.00 373.00,665.00 C374.82,665.00 375.00,664.33 375.00,657.50 C375.00,651.20 374.66,649.66 372.88,647.88 C371.17,646.17 369.93,645.86 366.38,646.26 L 362.00 646.75 L 362.00 642.38 C362.00,638.67 361.70,638.00 360.00,638.00 C358.10,638.00 358.00,638.67 358.00,651.57 ZM 653.45 662.55 C656.06,665.15 658.94,665.64 662.01,664.00 C663.26,663.33 664.08,663.33 664.50,664.00 C664.84,664.55 665.77,665.00 666.56,665.00 C667.71,665.00 668.00,663.10 668.00,655.50 C668.00,646.67 667.86,646.00 666.00,646.00 C664.21,646.00 664.00,646.67 664.00,652.48 C664.00,658.30 663.74,659.12 661.47,660.61 C659.11,662.16 658.82,662.15 656.97,660.48 C655.40,659.06 655.00,657.39 655.00,652.35 C655.00,646.67 654.79,646.00 653.00,646.00 C651.19,646.00 651.00,646.67 651.00,653.05 C651.00,659.19 651.31,660.40 653.45,662.55 ZM 421.00 652.08 C421.00,662.10 421.29,665.07 422.25,664.76 C422.94,664.53 423.64,663.18 423.81,661.75 C423.98,660.32 424.81,658.57 425.65,657.87 C426.95,656.79 427.72,657.24 430.68,660.80 C433.83,664.60 437.00,666.29 437.00,664.18 C437.00,663.72 435.43,661.15 433.52,658.45 L 430.03 653.55 L 433.72 649.78 C439.43,643.93 434.77,644.81 428.78,650.71 L 424.00 655.42 L 424.00 647.21 C424.00,640.58 423.71,639.00 422.50,639.00 C421.24,639.00 421.00,641.12 421.00,652.08 ZM 519.00 655.50 C519.00,662.92 519.30,665.00 520.38,665.00 C522.09,665.00 522.97,661.93 522.99,655.95 C523.00,650.93 524.28,649.00 527.58,649.00 C530.87,649.00 531.86,650.95 532.20,658.04 C532.43,662.98 532.85,664.50 534.00,664.50 C536.25,664.50 536.66,651.66 534.52,648.40 C532.81,645.77 527.55,645.10 523.93,647.04 C522.60,647.75 522.00,647.75 522.00,647.04 C522.00,646.47 521.33,646.00 520.50,646.00 C519.27,646.00 519.00,647.72 519.00,655.50 ZM 395.69 664.35 C397.38,666.05 398.52,663.89 398.81,658.44 C399.15,651.91 400.94,649.00 404.62,649.00 C407.78,649.00 409.00,651.77 409.00,658.93 C409.00,663.66 409.33,665.00 410.50,665.00 C412.72,665.00 412.66,649.80 410.43,647.57 C408.64,645.78 403.79,645.50 400.93,647.04 C399.60,647.75 399.00,647.75 399.00,647.04 C399.00,646.47 398.10,646.00 397.00,646.00 C395.15,646.00 395.00,646.67 395.00,654.83 C395.00,659.69 395.31,663.98 395.69,664.35 ZM 582.00 664.43 C582.00,666.05 585.13,664.63 587.35,662.00 C588.73,660.35 590.25,659.00 590.72,659.00 C591.19,659.00 592.37,660.35 593.34,662.00 C595.03,664.87 598.00,666.13 598.00,663.98 C598.00,663.42 596.83,661.20 595.41,659.04 L 592.82 655.13 L 595.96 650.56 C598.64,646.66 598.83,646.00 597.30,645.99 C596.31,645.99 594.33,647.41 592.90,649.15 L 590.30 652.31 L 588.43 649.16 C587.19,647.05 585.79,646.00 584.24,646.00 C581.91,646.00 581.91,646.00 585.00,650.50 L 588.10 655.00 L 585.05 659.43 C583.37,661.87 582.00,664.12 582.00,664.43 ZM 340.00 654.07 C340.00,664.08 340.17,665.11 341.75,664.81 C343.27,664.52 343.54,663.04 343.78,653.74 L 344.07 643.00 L 348.03 643.00 C350.89,643.00 352.00,642.58 352.00,641.50 C352.00,640.27 350.22,640.00 342.00,640.00 C333.78,640.00 332.00,640.27 332.00,641.50 C332.00,642.58 333.11,643.00 336.00,643.00 L 340.00 643.00 ZM 678.56 662.78 C679.55,664.20 681.15,665.00 683.00,665.00 C686.97,665.00 687.60,663.40 684.27,661.81 C681.79,660.62 681.47,659.89 681.20,654.82 C680.93,649.62 681.09,649.12 683.12,648.83 C686.36,648.35 686.74,646.00 683.58,646.00 C681.49,646.00 681.00,645.52 681.00,643.50 C681.00,641.67 680.47,641.00 679.00,641.00 C677.53,641.00 677.00,641.67 677.00,643.50 C677.00,645.06 676.43,646.00 675.50,646.00 C674.67,646.00 674.00,646.46 674.00,647.03 C674.00,647.60 674.67,648.32 675.50,648.64 C676.59,649.06 677.00,650.77 677.00,654.88 C677.00,658.40 677.59,661.40 678.56,662.78 ZM 631.08 662.41 C634.80,665.54 639.78,665.81 643.14,663.07 C645.32,661.30 645.36,661.09 643.68,660.44 C642.68,660.05 641.36,660.24 640.73,660.87 C638.91,662.69 636.09,662.18 633.45,659.55 C630.48,656.57 630.32,653.68 633.00,651.00 C635.09,648.91 639.92,648.32 641.56,649.96 C642.17,650.57 643.06,650.56 644.01,649.94 C646.43,648.36 642.39,646.00 637.26,646.00 C631.20,646.00 628.00,649.24 628.00,655.37 C628.00,659.11 628.49,660.23 631.08,662.41 ZM 471.50 652.00 C470.67,652.69 467.97,653.47 465.50,653.75 L 461.00 654.26 L 461.00 643.00 L 465.80 643.00 C468.44,643.00 471.14,643.54 471.80,644.20 C473.48,645.88 473.30,650.51 471.50,652.00 ZM 484.00 652.00 C484.00,662.40 484.28,665.00 485.38,665.00 C487.42,665.00 487.97,661.75 487.99,649.75 C488.00,639.66 487.88,639.00 486.00,639.00 C484.10,639.00 484.00,639.67 484.00,652.00 ZM 619.00 653.04 C619.00,653.57 616.53,654.00 613.50,654.00 C609.50,654.00 608.00,653.63 608.00,652.62 C608.00,650.94 609.78,649.46 612.68,648.76 C614.85,648.23 619.00,651.04 619.00,653.04 ZM 505.80 660.80 C503.01,663.59 497.04,660.96 498.36,657.51 C498.74,656.51 500.29,656.00 502.97,656.00 C506.18,656.00 507.00,656.36 507.00,657.80 C507.00,658.79 506.46,660.14 505.80,660.80 ZM 706.00 652.70 C706.00,653.61 704.35,654.00 700.50,654.00 C694.78,654.00 693.91,653.23 696.57,650.57 C699.51,647.64 706.00,649.10 706.00,652.70 ZM 384.21 655.93 C383.99,663.14 384.21,665.10 385.21,664.77 C386.11,664.47 386.59,661.54 386.79,655.07 C387.01,647.86 386.79,645.90 385.79,646.23 C384.89,646.53 384.41,649.46 384.21,655.93 ZM 383.70 642.37 C384.87,643.53 387.50,642.58 387.50,640.99 C387.50,640.17 386.49,639.36 385.25,639.18 C383.06,638.87 382.13,640.79 383.70,642.37 Z" fill="rgb(2,2,2)"/>
<path d="M 965.12 986.58 C962.38,979.96 955.31,973.05 948.72,970.53 C946.12,969.54 944.00,968.42 944.00,968.05 C944.00,967.67 946.47,966.34 949.49,965.09 C956.00,962.39 963.02,955.14 965.56,948.47 C966.50,946.01 967.58,944.00 967.95,944.00 C968.33,944.00 969.64,946.44 970.88,949.42 C973.62,956.04 980.69,962.95 987.28,965.47 C989.88,966.46 992.00,967.58 992.00,967.95 C992.00,968.33 989.53,969.66 986.51,970.91 C980.00,973.61 972.98,980.86 970.44,987.53 C969.50,989.99 968.42,992.00 968.05,992.00 C967.67,992.00 966.36,989.56 965.12,986.58 ZM 354.64 494.11 C335.38,465.89 336.98,422.89 358.27,396.32 C368.18,383.95 378.27,375.28 389.75,369.71 C401.12,364.17 413.90,361.69 429.50,361.70 C414.05,361.69 401.20,364.16 389.75,369.71 C381.38,373.79 373.78,379.54 366.38,387.17 C357.90,395.92 353.00,403.30 353.00,407.32 C353.00,408.94 351.84,413.46 350.42,417.38 C343.11,437.51 343.16,459.07 350.56,477.56 C352.64,482.75 353.02,484.74 352.20,486.05 C349.90,489.74 360.58,503.16 372.34,513.29 C365.58,507.49 358.94,500.41 354.64,494.11 ZM 420.86 388.38 C413.76,389.80 412.11,389.15 411.85,384.84 C411.70,382.46 413.69,370.98 414.36,370.31 C415.56,369.11 425.57,368.90 429.46,369.99 C435.68,371.73 437.14,373.66 434.11,376.11 C432.83,377.15 430.45,378.00 428.82,378.00 C426.33,378.00 422.67,379.25 421.08,380.64 C420.85,380.84 421.71,382.13 423.00,383.50 C424.30,384.88 424.80,386.00 424.12,386.00 C423.44,386.00 423.13,386.40 423.42,386.88 C423.72,387.36 422.57,388.04 420.86,388.38 ZM 582.05 463.00 L 601.13 462.75 C633.30,462.32 643.45,461.89 644.04,460.93 C644.55,460.11 648.42,459.52 655.27,459.22 L 665.72 458.75 L 666.39 449.19 C666.76,443.93 667.44,439.15 667.90,438.56 C668.36,437.98 668.95,436.26 669.23,434.75 L 669.72 432.00 L 670.00 432.00 L 670.00 463.00 ZM 639.67 393.15 C653.34,392.95 663.75,392.69 664.69,392.48 C666.78,392.01 666.86,391.55 666.69,381.47 C666.56,374.39 666.88,370.71 667.66,370.22 C668.30,369.82 669.14,367.77 669.54,365.65 L 670.00 363.19 L 670.00 392.85 ZM 663.42 528.39 C662.55,528.73 661.76,528.97 661.67,528.94 C658.47,527.73 657.00,526.93 657.00,526.40 C657.00,525.26 661.13,519.00 661.88,519.00 C664.95,519.00 666.30,527.29 663.42,528.39 ZM 670.00 361.81 L 628.88 362.27 L 670.00 361.81 L 670.00 361.81 Z" fill="rgb(129,129,129)"/>
<path d="M 412.50 532.50 C403.30,530.76 395.85,528.07 385.85,522.86 C381.79,520.75 377.04,517.33 372.34,513.29 L 372.33 513.29 C360.57,503.15 349.90,489.73 352.20,486.05 C353.02,484.74 352.64,482.75 350.56,477.56 C343.16,459.07 343.11,437.51 350.42,417.38 C351.84,413.46 353.00,408.94 353.00,407.32 C353.00,403.30 357.90,395.92 366.38,387.17 C373.78,379.54 381.38,373.79 389.75,369.71 C394.36,367.46 399.20,365.72 404.37,364.44 C404.29,364.47 404.20,364.49 404.12,364.52 C402.05,365.18 402.02,365.54 403.21,366.41 C404.49,367.35 406.69,367.34 413.18,366.36 C417.75,365.67 423.78,365.08 426.57,365.05 C433.81,364.98 449.35,367.82 457.23,370.65 C472.22,376.05 488.38,387.38 496.60,398.24 C499.21,401.68 501.72,405.01 502.19,405.63 C502.72,406.33 500.52,410.51 496.27,416.85 C492.55,422.40 489.27,426.95 489.00,426.96 C488.73,426.97 486.34,423.65 483.69,419.58 C474.53,405.50 462.59,396.17 447.72,391.47 C434.22,387.21 412.23,388.52 405.25,394.02 C403.86,395.11 403.13,396.01 403.62,396.02 C404.10,396.02 403.83,396.51 403.00,397.10 C402.95,397.14 402.90,397.17 402.86,397.21 C402.45,397.49 402.15,397.70 402.19,397.79 C402.26,397.99 404.00,397.56 409.90,396.03 C384.13,404.57 367.75,431.12 374.51,459.76 C377.70,473.30 387.86,487.15 399.96,494.46 C408.92,499.86 420.81,502.56 431.96,502.03 C424.71,502.51 417.41,501.54 410.15,499.12 C405.39,497.53 399.60,495.92 397.29,495.54 C391.78,494.62 385.21,489.53 380.61,482.60 C374.42,473.28 369.14,461.09 368.44,454.50 C367.74,447.93 366.50,445.60 364.97,448.01 C363.98,449.59 363.78,451.55 363.54,462.00 C363.42,467.81 362.91,469.34 358.73,476.42 L 354.06 484.34 L 357.25 490.42 C359.34,494.40 363.74,499.78 369.99,506.00 C380.64,516.59 389.28,521.84 403.70,526.48 C409.38,528.31 412.09,529.70 412.50,531.00 C412.75,531.80 413.47,532.44 414.53,532.85 C413.85,532.74 413.18,532.62 412.50,532.50 ZM 588.07 531.91 C577.11,529.76 561.64,523.23 552.00,516.68 C545.90,512.54 534.73,501.74 529.39,494.83 C526.97,491.71 525.00,488.91 525.00,488.61 C525.00,487.78 544.21,458.87 544.54,459.21 C544.69,459.37 547.58,463.70 550.95,468.83 C558.26,479.98 568.72,490.51 576.71,494.76 C579.90,496.47 585.88,498.79 589.99,499.93 C596.91,501.85 600.12,502.00 633.73,502.00 L 670.00 502.00 L 670.00 533.00 L 631.25 532.89 C609.94,532.83 590.51,532.39 588.07,531.91 ZM 730.16 537.84 C722.79,536.98 714.82,534.38 707.87,530.73 C708.03,530.76 708.19,530.77 708.35,530.76 C709.16,530.69 709.92,530.06 711.38,528.91 L 714.04 526.82 L 708.27 523.07 C705.10,521.00 701.61,518.30 700.51,517.06 C698.43,514.71 694.31,512.07 695.35,513.75 C695.67,514.28 695.24,515.56 694.39,516.60 C693.55,517.65 693.09,518.01 693.38,517.42 C693.67,516.82 693.24,516.33 692.41,516.33 C690.60,516.33 698.80,524.99 703.83,528.42 C701.22,526.80 698.83,525.03 696.76,523.16 C691.73,518.62 685.21,509.07 682.79,502.70 C678.10,490.35 677.87,486.72 678.09,430.00 C678.20,402.21 678.31,388.53 678.69,381.24 C678.56,385.64 678.62,392.35 678.78,403.19 C679.00,418.35 679.58,430.65 680.09,430.83 C680.59,431.02 681.00,431.80 681.00,432.58 C681.00,433.36 681.48,434.00 682.08,434.00 C682.81,434.00 682.96,436.66 682.56,442.25 C682.23,446.79 681.71,457.92 681.41,466.98 C681.11,476.10 680.39,484.03 679.81,484.72 C679.19,485.48 679.04,487.80 679.45,490.49 C679.97,493.97 680.54,495.00 681.98,495.00 C686.15,495.00 686.78,494.13 685.84,489.69 C685.73,489.18 685.63,487.44 685.55,484.70 C685.68,487.57 685.84,489.48 686.03,490.50 C689.71,509.91 705.89,526.08 726.00,530.43 C735.55,532.50 779.00,532.57 782.96,530.52 C789.26,527.26 791.44,521.68 788.57,516.13 C785.67,510.52 785.75,510.54 757.10,509.99 C732.32,509.52 730.17,509.34 725.67,507.27 C718.10,503.78 713.37,499.45 710.30,493.21 L 707.50 487.50 L 707.50 452.00 C707.50,432.48 707.39,407.12 707.25,395.65 L 707.02 376.68 C707.70,378.93 707.99,381.67 708.00,385.12 C708.00,392.39 708.10,392.73 710.25,392.62 C712.35,392.51 712.54,391.93 713.08,384.00 C713.58,376.71 713.37,374.86 711.58,371.00 C710.60,368.89 709.31,367.13 707.79,365.72 C709.34,367.12 710.69,368.87 711.75,370.97 L 714.00 375.42 L 714.00 430.24 C714.00,473.98 714.27,485.72 715.35,488.28 C717.53,493.50 722.07,498.12 727.46,500.63 C732.33,502.90 733.36,502.98 757.79,502.99 C781.09,503.00 783.39,503.16 787.00,505.00 C798.56,510.90 798.82,529.43 787.43,535.64 C783.80,537.63 781.72,537.82 760.00,538.18 C747.08,538.40 733.65,538.24 730.16,537.84 ZM 258.45 391.93 C258.60,392.17 259.46,392.38 260.71,392.55 L 257.35 392.50 L 253.13 389.71 C247.46,385.95 245.11,381.89 245.01,375.62 C245.11,379.85 246.30,379.93 248.31,375.77 C249.49,373.34 249.59,372.36 248.69,371.79 C246.45,370.36 245.35,370.82 245.07,373.45 C245.51,367.74 248.09,362.78 252.23,359.83 C253.26,359.10 253.98,358.60 255.42,358.25 C255.41,358.26 255.40,358.27 255.39,358.27 C254.97,358.70 255.36,359.79 256.27,360.70 C258.12,362.55 267.29,362.83 269.38,361.10 C273.00,358.09 288.39,358.72 291.64,362.00 C292.45,362.82 294.41,363.46 296.42,363.79 C293.50,363.78 290.16,363.78 286.31,363.78 C257.62,363.78 254.99,364.19 252.45,369.09 C250.49,372.89 250.63,375.88 252.96,379.70 C256.56,385.61 258.45,386.00 283.50,386.00 L 306.09 386.00 L 305.80 431.75 C305.50,476.96 305.47,477.57 303.18,483.25 C301.90,486.41 300.31,489.56 299.64,490.25 C298.97,490.94 297.16,493.17 295.62,495.22 C291.85,500.21 284.96,504.62 277.19,507.02 C272.27,508.54 267.91,509.00 258.33,509.00 C251.48,509.00 245.00,509.46 243.94,510.03 C241.35,511.42 239.00,516.19 239.00,520.07 C239.00,522.41 240.01,524.24 242.88,527.12 L 246.76 531.00 L 259.84 531.00 C246.67,531.00 246.00,531.10 246.00,533.00 C246.00,534.10 245.55,535.00 245.00,535.00 C243.67,535.00 243.70,535.87 244.56,536.57 C229.63,530.91 228.04,511.29 241.97,504.25 C245.93,502.25 247.91,502.00 259.96,502.00 C272.77,502.00 273.83,501.84 279.52,499.15 C287.02,495.60 294.12,487.97 296.95,480.41 C298.89,475.21 299.00,472.83 299.00,434.02 L 299.00 393.11 L 278.17 392.81 L 273.55 392.74 C273.84,392.66 274.00,392.57 274.00,392.46 C274.00,392.16 273.02,390.59 271.81,388.96 C268.93,385.06 263.46,384.82 260.07,388.43 C258.82,389.76 258.09,391.34 258.45,391.93 ZM 582.05 463.00 L 561.53 463.00 C562.40,462.87 563.29,462.30 563.88,461.25 C564.74,459.71 567.18,459.43 584.18,458.92 C606.97,458.24 606.50,458.41 618.57,446.81 C625.20,440.45 626.68,438.53 625.70,437.56 C624.82,436.68 617.05,436.15 598.51,435.72 C576.62,435.22 572.38,434.88 571.42,433.56 C570.62,432.47 568.60,432.00 564.64,432.00 L 669.72 432.00 L 669.23 434.75 C668.95,436.26 668.36,437.98 667.90,438.56 C667.44,439.15 666.76,443.93 666.39,449.19 L 665.72 458.75 L 655.27 459.22 C648.42,459.52 644.55,460.11 644.04,460.93 C643.45,461.89 633.30,462.32 601.13,462.75 ZM 556.14 514.26 C559.61,516.32 563.42,518.00 564.60,518.00 C565.78,518.00 568.04,516.51 569.62,514.70 C571.21,512.88 574.19,510.13 576.25,508.58 C581.49,504.64 581.10,502.77 574.25,498.91 C565.96,494.23 552.45,480.37 551.02,475.08 C550.41,472.80 549.54,471.17 549.09,471.45 C548.64,471.72 547.46,471.06 546.48,469.98 C545.49,468.89 544.34,468.00 543.91,468.00 C543.47,468.00 539.97,472.55 536.12,478.10 L 529.12 488.20 L 531.25 492.58 C532.42,494.99 533.58,496.76 533.82,496.51 C534.06,496.27 537.76,499.32 542.04,503.30 C546.32,507.28 552.67,512.21 556.14,514.26 ZM 272.26 375.52 C273.92,377.40 287.80,377.47 290.25,375.61 C294.36,372.49 291.86,371.06 282.14,371.00 C283.17,371.00 284.26,371.00 285.39,371.00 C312.92,371.00 314.86,371.44 318.51,378.57 C320.44,382.35 320.52,384.31 320.44,430.50 C320.43,441.32 320.41,450.01 320.34,457.08 C320.28,457.03 320.21,457.00 320.14,457.00 C319.51,457.00 319.00,458.47 319.00,460.26 C319.00,462.40 318.34,463.93 317.06,464.73 C315.31,465.82 315.08,465.63 314.72,462.72 C314.50,460.95 314.25,463.02 314.16,467.32 C314.04,473.11 314.39,475.53 315.50,476.64 C317.76,478.90 317.32,480.70 314.03,482.64 C312.39,483.61 310.60,485.70 310.05,487.30 C309.31,489.40 307.60,492.27 305.43,495.25 C307.95,491.61 309.99,487.70 311.34,483.71 C313.35,477.81 313.47,475.19 313.78,430.89 L 314.11 384.28 L 311.48 381.16 L 308.85 378.03 L 284.19 377.77 C261.36,377.52 259.50,377.37 259.18,375.70 C258.39,371.57 259.65,371.06 280.54,371.00 C275.88,371.06 273.64,371.50 272.59,372.56 C271.34,373.80 271.27,374.39 272.26,375.52 ZM 639.67 393.15 L 631.25 393.23 C587.83,393.64 586.27,393.87 573.50,401.53 C564.80,406.75 560.23,411.08 544.76,433.70 C548.53,428.13 551.34,424.05 552.51,422.46 C556.74,416.73 557.55,415.01 556.87,413.17 C556.18,411.32 556.78,410.11 560.21,406.39 C565.00,401.19 570.23,397.91 580.17,393.86 C590.57,389.63 596.33,389.08 632.25,388.90 L 665.00 388.74 L 665.00 366.00 L 649.75 366.00 C641.36,365.99 627.39,365.70 618.70,365.34 C605.51,364.79 603.00,364.44 603.46,363.24 C603.56,362.99 603.58,362.79 603.51,362.63 C609.68,362.49 617.79,362.39 628.75,362.27 L 628.88 362.27 L 629.06 362.27 L 670.00 361.81 L 670.00 363.19 L 669.54 365.65 C669.14,367.77 668.30,369.82 667.66,370.22 C666.88,370.71 666.56,374.39 666.69,381.47 C666.86,391.55 666.78,392.01 664.69,392.48 C663.75,392.69 653.35,392.95 639.67,393.15 ZM 325.16 503.82 C329.03,497.08 332.24,489.46 333.28,484.00 C335.03,474.83 334.42,436.90 332.52,437.63 C330.66,438.34 330.02,442.72 329.00,461.43 C328.49,470.83 327.83,477.41 326.62,482.89 C327.97,474.61 328.00,461.16 328.00,429.57 L 328.00 427.34 C328.00,385.47 328.00,378.23 324.59,373.43 C323.81,372.34 322.86,371.38 321.70,370.16 C316.91,365.17 315.71,364.08 301.25,363.84 C301.72,363.71 302.05,363.52 302.17,363.25 C302.85,361.71 309.66,359.23 311.06,360.01 C313.51,361.36 318.30,361.57 318.72,360.33 C318.88,359.84 318.58,359.41 317.79,359.04 C320.71,359.94 322.45,361.38 325.01,363.66 C328.91,367.13 332.84,373.64 333.75,378.15 C334.12,379.99 334.56,402.75 334.73,428.72 C335.08,482.21 334.82,484.90 328.06,498.50 C327.15,500.33 326.18,502.10 325.16,503.82 ZM 706.78 511.89 L 710.72 515.65 C703.39,510.43 697.88,503.14 695.04,494.62 C694.10,491.79 693.59,489.86 693.34,482.90 C693.53,483.46 693.86,482.65 694.50,481.00 C696.30,476.33 696.30,473.80 694.51,470.36 C693.66,468.73 693.29,468.16 693.15,469.67 C693.12,461.22 693.16,449.39 693.24,432.47 L 693.33 412.46 C693.34,422.60 693.45,429.36 693.63,428.50 C694.53,424.19 696.39,418.45 697.17,417.55 C697.63,417.03 698.00,415.14 698.00,413.36 C698.00,411.58 698.45,409.84 699.00,409.50 C699.13,409.42 699.25,408.99 699.36,408.29 C699.39,415.78 699.42,424.18 699.45,433.00 L 699.61 487.50 L 701.97 493.50 C704.75,500.56 711.17,507.78 718.24,512.01 C718.15,512.00 718.06,512.00 717.96,512.00 C717.38,512.00 714.75,509.98 712.10,507.50 C709.46,505.02 706.99,503.00 706.62,503.00 C706.25,503.00 705.51,504.15 704.98,505.56 C704.38,507.12 703.52,507.87 702.75,507.48 C702.06,507.13 703.88,509.12 706.78,511.89 ZM 723.41 521.96 C719.44,520.70 715.73,518.94 712.37,516.77 L 715.51 515.21 C717.76,514.09 719.03,513.03 719.00,512.45 C719.76,512.88 720.52,513.28 721.29,513.63 L 727.50 516.50 L 780.50 517.50 L 780.50 523.50 L 755.00 523.70 C732.17,523.88 728.86,523.70 723.41,521.96 ZM 420.86 388.38 C422.57,388.04 423.72,387.36 423.42,386.88 C423.13,386.40 423.44,386.00 424.12,386.00 C424.80,386.00 424.30,384.88 423.00,383.50 C421.71,382.13 420.85,380.84 421.08,380.64 C422.67,379.25 426.33,378.00 428.82,378.00 C430.45,378.00 432.83,377.15 434.11,376.11 C437.14,373.66 435.68,371.73 429.46,369.99 C425.57,368.90 415.56,369.11 414.36,370.31 C413.69,370.98 411.70,382.46 411.85,384.84 C412.11,389.15 413.76,389.80 420.86,388.38 ZM 248.25 522.36 C246.46,521.60 246.71,517.33 248.58,516.61 C249.45,516.27 255.89,516.00 262.89,516.00 C271.67,516.00 275.60,515.71 279.69,514.56 C277.26,515.38 274.94,515.96 273.01,516.20 C270.56,516.49 268.71,520.00 271.00,520.00 C271.63,520.00 272.84,520.70 273.70,521.56 C273.96,521.82 274.27,522.04 274.60,522.21 C265.50,522.73 249.62,522.94 248.25,522.36 ZM 660.31 664.69 C660.74,664.45 661.00,664.06 661.00,663.50 C661.00,662.67 660.47,662.00 659.81,662.00 C657.29,662.00 654.00,657.66 654.00,654.33 C654.00,652.50 653.58,651.00 653.07,651.00 C652.56,651.00 651.94,650.21 651.69,649.25 C651.44,648.29 651.18,650.33 651.12,653.80 C651.07,656.33 651.11,657.95 651.39,659.16 C651.07,657.83 651.00,656.02 651.00,653.05 C651.00,646.67 651.19,646.00 653.00,646.00 C654.79,646.00 655.00,646.67 655.00,652.35 C655.00,657.39 655.40,659.06 656.97,660.48 C658.82,662.15 659.11,662.16 661.47,660.61 C663.74,659.12 664.00,658.30 664.00,652.48 C664.00,646.67 664.21,646.00 666.00,646.00 C667.86,646.00 668.00,646.67 668.00,655.50 C668.00,663.10 667.71,665.00 666.56,665.00 C665.77,665.00 664.84,664.55 664.50,664.00 C664.08,663.33 663.26,663.33 662.01,664.00 C661.43,664.30 660.87,664.54 660.31,664.69 ZM 559.00 460.74 C559.00,462.07 559.78,462.84 560.76,463.00 L 559.00 463.00 L 559.00 436.93 C559.00,440.99 559.36,441.98 561.00,442.50 C562.73,443.05 563.00,444.01 563.00,449.56 C563.00,454.90 562.66,456.19 561.00,457.23 C559.90,457.92 559.00,459.50 559.00,460.74 ZM 663.42 528.39 C666.30,527.29 664.95,519.00 661.88,519.00 C661.13,519.00 657.00,525.26 657.00,526.40 C657.00,526.93 658.47,527.73 661.67,528.94 C661.76,528.97 662.55,528.73 663.42,528.39 ZM 561.90 372.03 C567.64,368.90 573.55,366.51 579.61,364.87 C582.36,364.12 584.59,363.63 588.34,363.28 C582.48,364.14 579.74,365.30 579.30,366.97 C578.60,369.63 570.72,372.47 568.27,370.94 C567.11,370.21 564.94,370.60 561.90,372.03 ZM 371.20 651.50 C373.06,653.43 373.64,653.61 374.29,652.45 C374.49,652.08 374.62,651.71 374.68,651.34 C374.93,652.71 375.00,654.60 375.00,657.50 C375.00,664.33 374.82,665.00 373.00,665.00 C371.84,665.00 371.35,664.73 371.14,662.89 C371.38,663.54 371.90,664.00 372.50,664.00 C373.55,664.00 374.00,662.94 374.00,660.50 C374.00,658.58 373.60,657.00 373.11,657.00 C372.14,657.00 371.22,658.96 371.04,661.24 C371.01,660.40 371.00,659.37 371.00,658.12 C371.00,654.19 370.67,651.69 369.80,650.35 C370.33,650.71 370.81,651.10 371.20,651.50 ZM 706.00 652.70 C706.00,649.79 701.74,648.27 698.57,649.36 C699.09,649.13 699.61,649.00 700.07,649.00 C701.13,649.00 702.00,648.33 702.00,647.50 C702.00,646.53 701.21,646.05 700.08,646.01 C700.23,646.00 700.37,646.00 700.52,646.00 C705.28,646.00 707.46,647.27 708.98,650.94 C709.12,651.29 709.25,651.62 709.36,651.93 C708.76,651.07 707.81,651.00 707.42,652.52 C706.96,654.27 706.20,654.46 700.95,654.16 C700.14,654.11 699.36,654.05 698.66,653.97 C699.20,653.99 699.82,654.00 700.50,654.00 C704.35,654.00 706.00,653.61 706.00,652.70 ZM 365.19 649.60 C362.72,650.46 362.47,651.03 362.01,657.33 C362.08,654.52 361.64,652.00 360.55,652.00 C359.50,652.00 359.00,651.04 359.00,649.03 C359.00,646.80 359.37,646.21 360.50,646.64 C361.70,647.10 362.00,646.29 362.00,642.61 L 362.00 646.75 L 364.62 646.46 C362.78,647.14 363.38,648.49 366.20,648.81 C366.58,648.85 366.99,648.96 367.43,649.12 C366.79,649.13 366.05,649.30 365.19,649.60 ZM 340.00 640.01 L 340.00 643.00 L 336.00 643.00 C333.11,643.00 332.00,642.58 332.00,641.50 C332.00,641.40 332.01,641.30 332.04,641.21 C332.23,641.66 333.01,642.00 333.94,642.00 C335.01,642.00 336.16,641.55 336.50,641.00 C336.74,640.61 336.42,640.28 335.72,640.12 C336.82,640.05 338.22,640.02 340.00,640.01 ZM 307.72 503.71 C312.24,498.11 316.15,491.28 318.06,485.21 C318.46,483.96 318.83,482.39 319.16,480.63 C317.96,489.00 315.58,492.46 310.83,499.56 C309.88,500.98 308.84,502.36 307.72,503.71 ZM 256.63 537.72 C266.36,537.55 279.54,536.63 283.50,535.57 C278.10,537.02 266.05,537.82 256.63,537.72 ZM 443.70 362.42 C451.11,363.33 457.30,365.23 465.65,368.78 C466.57,369.18 467.49,369.59 468.41,370.03 C460.72,366.48 452.21,363.85 443.70,362.42 ZM 278.65 521.90 C279.43,521.69 280.28,521.49 281.00,521.36 C284.90,520.63 291.75,517.22 297.70,513.11 C292.25,517.16 286.22,520.22 280.50,521.63 C280.12,521.73 279.49,521.82 278.65,521.90 ZM 309.98 521.80 C302.35,528.24 293.41,532.92 283.50,535.57 C292.76,533.10 302.22,528.09 309.98,521.80 ZM 510.71 427.75 C526.27,404.40 532.43,396.03 537.39,390.88 C531.33,397.62 524.00,407.83 510.71,427.75 ZM 452.16 496.85 C457.67,494.16 463.07,490.43 468.32,485.71 C463.80,489.90 459.36,493.23 455.41,495.27 C454.33,495.83 453.25,496.36 452.16,496.85 ZM 503.52 399.92 C499.78,394.46 493.27,387.53 486.92,382.02 C493.37,387.36 499.15,393.53 503.52,399.92 ZM 701.51 657.03 L 702.00 657.00 C708.27,656.58 709.54,656.20 709.83,654.64 C709.87,654.46 709.89,654.28 709.90,654.10 C710.06,656.48 707.88,657.01 701.78,657.03 ZM 281.58 528.98 C285.82,527.87 292.27,525.39 296.02,523.42 C291.14,525.99 286.59,527.78 281.58,528.98 ZM 299.49 502.39 C297.56,504.43 295.62,506.23 293.89,507.50 C292.84,508.28 291.63,509.05 290.33,509.80 C293.58,507.75 296.68,505.24 299.49,502.39 ZM 705.49 373.29 L 703.47 371.27 C702.66,370.46 702.00,369.83 701.42,369.36 C701.45,369.38 701.49,369.40 701.53,369.43 C703.21,370.53 704.51,371.77 705.49,373.29 ZM 429.39 393.19 C425.33,393.08 421.38,393.39 417.59,394.07 C421.62,393.19 424.66,392.97 429.39,393.19 ZM 431.50 533.89 C447.27,533.19 462.67,528.38 476.40,519.90 C462.56,528.45 447.09,533.28 431.50,533.89 ZM 699.99 661.44 C699.22,661.08 698.39,660.53 697.40,659.75 L 694.53 657.50 L 694.96 657.47 L 697.31 659.53 C698.32,660.42 699.18,661.05 699.99,661.44 ZM 372.43 647.46 C371.33,646.75 369.91,646.26 368.34,646.11 C370.23,646.06 371.28,646.43 372.43,647.46 ZM 361.76 660.26 C361.40,663.61 360.89,664.60 359.75,664.81 C359.49,664.86 359.27,664.87 359.08,664.80 C359.27,664.87 359.49,664.86 359.75,664.81 C360.71,664.63 361.41,662.63 361.76,660.26 ZM 256.14 358.10 C257.91,357.79 260.64,357.64 265.52,357.57 C260.95,357.73 257.57,357.92 256.14,358.10 ZM 698.47 646.20 C697.11,646.53 695.60,647.31 694.45,648.45 C694.08,648.83 693.76,649.19 693.48,649.57 C694.59,647.81 696.30,646.64 698.47,646.20 ZM 699.15 377.21 C699.14,377.19 699.13,377.18 699.12,377.16 C698.77,376.61 697.86,376.22 696.87,376.14 C698.23,376.09 699.07,376.46 699.15,377.18 C699.15,377.19 699.15,377.20 699.15,377.21 ZM 453.42 398.44 C464.52,403.42 473.74,412.02 482.00,424.83 C473.76,412.06 464.51,403.43 453.42,398.44 ZM 698.87 361.52 C694.36,360.91 689.58,362.08 685.74,365.00 C689.56,362.05 694.33,360.88 698.87,361.52 ZM 653.45 662.55 C654.79,663.88 656.61,664.71 658.13,664.93 C656.49,664.82 654.93,664.02 653.45,662.55 ZM 696.34 650.80 C695.16,652.04 694.81,652.83 695.44,653.33 C695.16,653.21 695.00,653.09 695.00,652.98 C695.00,652.33 695.56,651.52 696.34,650.80 ZM 340.00 654.07 L 340.00 652.57 C340.00,664.00 340.16,665.12 341.75,664.81 C340.17,665.11 340.00,664.08 340.00,654.07 ZM 696.59 368.14 C696.21,368.17 695.80,368.21 695.36,368.26 C694.19,368.39 693.15,368.61 692.21,368.92 C693.62,368.41 695.13,368.15 696.59,368.14 ZM 701.98 661.92 C702.94,661.91 703.95,661.56 705.17,660.91 C703.94,661.57 702.95,661.91 701.98,661.92 Z" fill="rgb(181,181,182)"/>
<path d="M 340.00 652.57 L 340.00 640.00 L 346.00 640.00 C350.67,640.00 352.00,640.33 352.00,641.50 C352.00,642.58 350.89,643.00 348.03,643.00 L 344.07 643.00 L 343.78 653.74 C343.54,663.04 343.27,664.52 341.75,664.81 C340.16,665.12 340.00,664.01 340.00,652.57 ZM 358.00 651.57 C358.00,638.67 358.10,638.00 360.00,638.00 C361.71,638.00 362.00,638.67 362.00,642.61 C362.00,646.29 361.70,647.10 360.50,646.64 C359.37,646.21 359.00,646.80 359.00,649.03 C359.00,651.04 359.50,652.00 360.55,652.00 C362.97,652.00 362.20,664.35 359.75,664.81 C358.15,665.12 358.00,663.96 358.00,651.57 ZM 384.21 655.93 C384.41,649.46 384.89,646.53 385.79,646.23 C386.79,645.90 387.01,647.86 386.79,655.07 C386.59,661.54 386.11,664.47 385.21,664.77 C384.21,665.10 383.99,663.14 384.21,655.93 ZM 395.69 664.35 C395.31,663.98 395.00,659.69 395.00,654.83 C395.00,646.67 395.15,646.00 397.00,646.00 C398.10,646.00 399.00,646.47 399.00,647.04 C399.00,647.75 399.60,647.75 400.93,647.04 C403.79,645.50 408.64,645.78 410.43,647.57 C412.66,649.80 412.72,665.00 410.50,665.00 C409.33,665.00 409.00,663.66 409.00,658.93 C409.00,651.77 407.78,649.00 404.62,649.00 C400.94,649.00 399.15,651.91 398.81,658.44 C398.52,663.89 397.38,666.05 395.69,664.35 ZM 421.00 652.08 C421.00,641.12 421.24,639.00 422.50,639.00 C423.71,639.00 424.00,640.58 424.00,647.21 L 424.00 655.42 L 428.78 650.71 C434.77,644.81 439.43,643.93 433.72,649.78 L 430.03 653.55 L 433.52 658.45 C435.43,661.15 437.00,663.72 437.00,664.18 C437.00,666.29 433.83,664.60 430.68,660.80 C427.72,657.24 426.95,656.79 425.65,657.87 C424.81,658.57 423.98,660.32 423.81,661.75 C423.64,663.18 422.94,664.53 422.25,664.76 C421.29,665.07 421.00,662.10 421.00,652.08 ZM 457.81 652.50 L 457.50 640.00 L 465.08 640.00 C471.70,640.00 472.92,640.29 474.83,642.31 C478.00,645.69 477.69,650.46 474.08,654.08 C471.61,656.54 470.35,657.00 466.08,657.00 L 461.00 657.00 L 461.00 661.00 C461.00,663.82 460.57,665.00 459.56,665.00 C458.39,665.00 458.05,662.58 457.81,652.50 ZM 471.50 652.00 C473.30,650.51 473.48,645.88 471.80,644.20 C471.14,643.54 468.44,643.00 465.80,643.00 L 461.00 643.00 L 461.00 648.63 L 461.00 654.26 L 465.50 653.75 C467.97,653.47 470.67,652.69 471.50,652.00 ZM 484.00 652.00 C484.00,639.67 484.10,639.00 486.00,639.00 C487.88,639.00 488.00,639.66 487.99,649.75 C487.97,661.75 487.42,665.00 485.38,665.00 C484.28,665.00 484.00,662.40 484.00,652.00 ZM 497.76 663.93 C494.59,662.08 493.68,659.14 495.45,656.43 C496.79,654.40 497.85,654.00 502.02,654.00 C506.32,654.00 507.00,653.73 507.00,652.02 C507.00,649.78 503.47,648.49 499.46,649.25 C496.61,649.80 495.04,648.22 497.12,646.90 C497.88,646.42 500.61,646.02 503.19,646.02 C509.49,645.99 511.00,648.16 511.00,657.16 C511.00,663.91 509.98,666.06 507.67,664.14 C506.89,663.50 505.89,663.46 504.97,664.04 C503.06,665.25 499.95,665.20 497.76,663.93 ZM 505.80 660.80 C506.46,660.14 507.00,658.79 507.00,657.80 C507.00,656.36 506.18,656.00 502.97,656.00 C500.29,656.00 498.74,656.51 498.36,657.51 C497.04,660.96 503.01,663.59 505.80,660.80 ZM 519.00 655.50 C519.00,647.72 519.27,646.00 520.50,646.00 C521.33,646.00 522.00,646.47 522.00,647.04 C522.00,647.75 522.60,647.75 523.93,647.04 C527.55,645.10 532.81,645.77 534.52,648.40 C536.66,651.66 536.25,664.50 534.00,664.50 C532.85,664.50 532.43,662.98 532.20,658.04 C531.86,650.95 530.87,649.00 527.58,649.00 C524.28,649.00 523.00,650.93 522.99,655.95 C522.97,661.93 522.09,665.00 520.38,665.00 C519.30,665.00 519.00,662.92 519.00,655.50 ZM 558.00 652.54 L 558.00 640.00 L 567.08 640.00 C573.90,640.00 576.06,640.31 575.75,641.25 C575.49,642.04 572.89,642.61 568.67,642.80 L 562.00 643.09 L 562.00 647.05 L 562.00 651.00 L 568.00 651.00 C572.67,651.00 574.00,651.33 574.00,652.50 C574.00,653.67 572.67,654.00 568.00,654.00 L 562.00 654.00 L 562.00 657.38 C562.00,661.31 563.39,661.96 571.83,661.99 C575.65,662.00 577.05,662.36 576.75,663.25 C576.47,664.10 573.40,664.59 567.17,664.79 L 558.00 665.08 L 558.00 652.54 ZM 582.00 664.43 C582.00,664.12 583.37,661.87 585.05,659.43 L 588.10 655.00 L 585.00 650.50 C581.91,646.00 581.91,646.00 584.24,646.00 C585.79,646.00 587.19,647.05 588.43,649.16 L 590.30 652.31 L 592.90 649.15 C594.33,647.41 596.31,645.99 597.30,645.99 C598.83,646.00 598.64,646.66 595.96,650.56 L 592.82 655.13 L 595.41 659.04 C596.83,661.20 598.00,663.42 598.00,663.98 C598.00,666.13 595.03,664.87 593.34,662.00 C592.37,660.35 591.19,659.00 590.72,659.00 C590.25,659.00 588.73,660.35 587.35,662.00 C585.13,664.63 582.00,666.05 582.00,664.43 ZM 608.78 663.44 C607.28,662.63 605.59,661.10 605.03,660.05 C600.71,651.98 610.05,642.75 618.15,647.08 C620.38,648.27 623.40,654.54 622.47,656.04 C622.15,656.57 618.76,657.00 614.94,657.00 C607.52,657.00 606.43,657.92 610.60,660.66 C612.77,662.08 613.71,662.17 616.31,661.19 C620.25,659.70 621.98,661.20 618.86,663.38 C616.02,665.37 612.37,665.39 608.78,663.44 ZM 619.00 653.04 C619.00,651.04 614.85,648.23 612.68,648.76 C609.78,649.46 608.00,650.94 608.00,652.62 C608.00,653.63 609.50,654.00 613.50,654.00 C616.53,654.00 619.00,653.57 619.00,653.04 ZM 631.08 662.41 C628.49,660.23 628.00,659.11 628.00,655.37 C628.00,649.24 631.20,646.00 637.26,646.00 C642.39,646.00 646.43,648.36 644.01,649.94 C643.06,650.56 642.17,650.57 641.56,649.96 C639.92,648.32 635.09,648.91 633.00,651.00 C630.32,653.68 630.48,656.57 633.45,659.55 C636.09,662.18 638.91,662.69 640.73,660.87 C641.36,660.24 642.68,660.05 643.68,660.44 C645.36,661.09 645.32,661.30 643.14,663.07 C639.78,665.81 634.80,665.54 631.08,662.41 ZM 653.45 662.55 C651.33,660.43 651.02,659.23 651.12,653.80 C651.18,650.33 651.44,648.29 651.69,649.25 C651.94,650.21 652.56,651.00 653.07,651.00 C653.58,651.00 654.00,652.50 654.00,654.33 C654.00,657.66 657.29,662.00 659.81,662.00 C660.47,662.00 661.00,662.67 661.00,663.50 C661.00,665.90 656.20,665.29 653.45,662.55 ZM 678.56 662.78 C677.59,661.40 677.00,658.40 677.00,654.88 C677.00,650.77 676.59,649.06 675.50,648.64 C674.67,648.32 674.00,647.60 674.00,647.03 C674.00,646.46 674.67,646.00 675.50,646.00 C676.43,646.00 677.00,645.06 677.00,643.50 C677.00,641.67 677.53,641.00 679.00,641.00 C680.47,641.00 681.00,641.67 681.00,643.50 C681.00,645.52 681.49,646.00 683.58,646.00 C686.74,646.00 686.36,648.35 683.12,648.83 C681.09,649.12 680.93,649.62 681.20,654.82 C681.47,659.89 681.79,660.62 684.27,661.81 C687.60,663.40 686.97,665.00 683.00,665.00 C681.15,665.00 679.55,664.20 678.56,662.78 ZM 695.08 662.41 C692.49,660.23 692.00,659.11 692.00,655.37 C692.00,651.97 692.58,650.33 694.45,648.45 C697.20,645.71 702.00,645.10 702.00,647.50 C702.00,648.33 701.13,649.00 700.07,649.00 C698.12,649.00 695.00,651.45 695.00,652.98 C695.00,653.44 697.68,653.97 700.95,654.16 C706.20,654.46 706.96,654.27 707.42,652.52 C708.09,649.95 710.35,651.94 709.83,654.64 C709.54,656.20 708.27,656.58 702.00,657.00 L 694.53 657.50 L 697.40 659.75 C700.61,662.27 702.19,662.50 705.17,660.91 C708.28,659.24 709.74,661.37 706.86,663.38 C703.41,665.80 698.64,665.41 695.08,662.41 ZM 371.00 662.08 C371.00,659.47 372.02,657.00 373.11,657.00 C373.60,657.00 374.00,658.58 374.00,660.50 C374.00,662.94 373.55,664.00 372.50,664.00 C371.67,664.00 371.00,663.14 371.00,662.08 ZM 371.20 651.50 C369.94,650.19 367.69,648.98 366.20,648.81 C362.88,648.43 362.64,646.62 365.85,646.17 C371.32,645.39 376.20,649.03 374.29,652.45 C373.64,653.61 373.06,653.43 371.20,651.50 ZM 383.70 642.37 C382.13,640.79 383.06,638.87 385.25,639.18 C386.49,639.36 387.50,640.17 387.50,640.99 C387.50,642.58 384.87,643.53 383.70,642.37 ZM 332.00 641.00 C332.00,640.45 333.15,640.00 334.56,640.00 C336.01,640.00 336.85,640.43 336.50,641.00 C336.16,641.55 335.01,642.00 333.94,642.00 C332.87,642.00 332.00,641.55 332.00,641.00 ZM 246.25 537.36 C244.04,536.87 243.05,535.00 245.00,535.00 C245.55,535.00 246.00,534.10 246.00,533.00 C246.00,531.10 246.67,531.00 259.84,531.00 C276.11,531.00 285.23,529.09 296.02,523.42 C304.90,518.75 316.09,507.23 321.17,497.50 C326.36,487.57 328.00,480.04 329.00,461.43 C330.02,442.72 330.66,438.34 332.52,437.63 C334.42,436.90 335.03,474.83 333.28,484.00 C331.76,491.96 325.63,504.55 319.53,512.24 C311.12,522.86 297.10,531.94 283.50,535.57 C277.59,537.15 251.07,538.43 246.25,537.36 ZM 416.30 533.28 C414.27,533.03 412.88,532.19 412.50,531.00 C412.09,529.70 409.38,528.31 403.70,526.48 C389.28,521.84 380.64,516.59 369.99,506.00 C363.74,499.78 359.34,494.40 357.25,490.42 L 354.06 484.34 L 358.73 476.42 C362.91,469.34 363.42,467.81 363.54,462.00 C363.78,451.55 363.98,449.59 364.97,448.01 C366.50,445.60 367.74,447.93 368.44,454.50 C369.14,461.09 374.42,473.28 380.61,482.60 C385.21,489.53 391.78,494.62 397.29,495.54 C399.60,495.92 405.39,497.53 410.15,499.12 C425.35,504.19 440.70,502.88 455.41,495.27 C465.36,490.12 478.38,476.89 488.13,462.00 C531.44,395.90 535.77,390.16 550.50,379.24 C559.66,372.45 565.97,369.50 568.27,370.94 C570.72,372.47 578.60,369.63 579.30,366.97 C579.89,364.71 584.72,363.39 595.76,362.47 C602.74,361.90 603.93,362.01 603.46,363.24 C603.00,364.44 605.51,364.79 618.70,365.34 C627.39,365.70 641.36,365.99 649.75,366.00 L 665.00 366.00 L 665.00 377.37 L 665.00 388.74 L 632.25 388.90 C596.33,389.08 590.57,389.63 580.17,393.86 C570.23,397.91 565.00,401.19 560.21,406.39 C556.78,410.11 556.18,411.32 556.87,413.17 C557.55,415.01 556.74,416.73 552.51,422.46 C549.66,426.33 537.11,444.95 524.62,463.84 C507.23,490.15 500.24,499.86 494.71,505.38 C473.43,526.66 444.81,536.84 416.30,533.28 ZM 704.00 528.54 C699.00,525.20 690.58,516.33 692.41,516.33 C693.24,516.33 693.67,516.82 693.38,517.42 C693.09,518.01 693.55,517.65 694.39,516.60 C695.24,515.56 695.67,514.28 695.35,513.75 C694.31,512.07 698.43,514.71 700.51,517.06 C701.61,518.30 705.10,521.00 708.27,523.07 L 714.04 526.82 L 711.38 528.91 C708.17,531.44 708.34,531.45 704.00,528.54 ZM 273.70 521.56 C272.84,520.70 271.63,520.00 271.00,520.00 C268.71,520.00 270.56,516.49 273.01,516.20 C278.93,515.47 288.44,511.51 293.89,507.50 C299.81,503.14 308.16,492.70 310.05,487.30 C310.60,485.70 312.39,483.61 314.03,482.64 C317.32,480.70 317.76,478.90 315.50,476.64 C314.39,475.53 314.04,473.11 314.16,467.32 C314.25,463.02 314.50,460.95 314.72,462.72 C315.08,465.63 315.31,465.82 317.06,464.73 C318.34,463.93 319.00,462.40 319.00,460.26 C319.00,458.47 319.51,457.00 320.14,457.00 C322.04,457.00 320.54,477.36 318.06,485.21 C315.05,494.75 307.10,506.19 299.60,511.75 C293.27,516.45 285.33,520.55 281.00,521.36 C279.62,521.61 277.77,522.11 276.88,522.47 C275.97,522.83 274.57,522.43 273.70,521.56 ZM 556.14 514.26 C552.67,512.21 546.32,507.28 542.04,503.30 C537.76,499.32 534.06,496.27 533.82,496.51 C533.58,496.76 532.42,494.99 531.25,492.58 L 529.12 488.20 L 536.12 478.10 C539.97,472.55 543.47,468.00 543.91,468.00 C544.34,468.00 545.49,468.89 546.48,469.98 C547.46,471.06 548.64,471.72 549.09,471.45 C549.54,471.17 550.41,472.80 551.02,475.08 C552.45,480.37 565.96,494.23 574.25,498.91 C581.10,502.77 581.49,504.64 576.25,508.58 C574.19,510.13 571.21,512.88 569.62,514.70 C568.04,516.51 565.78,518.00 564.60,518.00 C563.42,518.00 559.61,516.32 556.14,514.26 ZM 706.78 511.89 C703.88,509.12 702.06,507.13 702.75,507.48 C703.52,507.87 704.38,507.12 704.98,505.56 C705.51,504.15 706.25,503.00 706.62,503.00 C706.99,503.00 709.46,505.02 712.10,507.50 C714.75,509.98 717.38,512.00 717.96,512.00 C720.05,512.00 718.87,513.54 715.51,515.21 L 712.06 516.93 L 706.78 511.89 ZM 679.45 490.49 C679.04,487.80 679.19,485.48 679.81,484.72 C680.39,484.03 681.11,476.10 681.41,466.98 C681.71,457.92 682.23,446.79 682.56,442.25 C682.96,436.66 682.81,434.00 682.08,434.00 C681.48,434.00 681.00,433.36 681.00,432.58 C681.00,431.80 680.59,431.02 680.09,430.83 C679.58,430.65 679.00,418.35 678.78,403.19 C678.43,379.19 678.58,375.42 680.06,372.19 C686.37,358.33 705.39,357.62 711.58,371.00 C713.37,374.86 713.58,376.71 713.08,384.00 C712.54,391.93 712.35,392.51 710.25,392.62 C708.10,392.73 708.00,392.39 708.00,385.12 C707.99,376.74 706.25,372.52 701.53,369.43 C697.95,367.08 691.49,368.05 688.10,371.45 L 685.50 374.04 L 685.22 429.77 C685.07,460.42 685.35,487.39 685.84,489.69 C686.78,494.13 686.15,495.00 681.98,495.00 C680.54,495.00 679.97,493.97 679.45,490.49 ZM 693.08 476.00 C693.02,467.87 693.08,467.62 694.51,470.36 C696.30,473.80 696.30,476.33 694.50,481.00 C693.20,484.39 693.15,484.23 693.08,476.00 ZM 559.00 460.74 C559.00,459.50 559.90,457.92 561.00,457.23 C562.66,456.19 563.00,454.90 563.00,449.56 C563.00,444.01 562.73,443.05 561.00,442.50 C559.36,441.98 559.00,440.99 559.00,436.93 L 559.00 432.00 L 564.64 432.00 C568.60,432.00 570.62,432.47 571.42,433.56 C572.38,434.88 576.62,435.22 598.51,435.72 C617.05,436.15 624.82,436.68 625.70,437.56 C626.68,438.53 625.20,440.45 618.57,446.81 C606.50,458.41 606.97,458.24 584.18,458.92 C567.18,459.43 564.74,459.71 563.88,461.25 C562.41,463.87 559.00,463.51 559.00,460.74 ZM 482.00 424.84 C468.84,404.42 453.23,394.68 431.49,393.30 C424.24,392.85 420.93,393.14 414.49,394.83 C400.97,398.36 401.34,398.29 403.00,397.10 C403.83,396.51 404.10,396.02 403.62,396.02 C403.13,396.01 403.86,395.11 405.25,394.02 C412.23,388.52 434.22,387.21 447.72,391.47 C462.59,396.17 474.53,405.50 483.69,419.58 C486.34,423.65 488.73,426.97 489.00,426.96 C489.27,426.95 492.55,422.40 496.27,416.85 C500.52,410.51 502.72,406.33 502.19,405.63 C501.72,405.01 499.21,401.68 496.60,398.24 C488.38,387.38 472.22,376.05 457.23,370.65 C449.35,367.82 433.81,364.98 426.57,365.05 C423.78,365.08 417.75,365.67 413.18,366.36 C406.69,367.34 404.49,367.35 403.21,366.41 C401.79,365.38 402.11,365.06 405.54,364.10 C412.59,362.12 428.29,360.79 436.42,361.49 C451.11,362.75 466.52,367.88 478.34,375.44 C486.47,380.64 498.02,391.87 503.52,399.92 L 508.14 406.69 L 498.96 420.85 C493.91,428.63 489.49,434.98 489.14,434.96 C488.79,434.93 485.58,430.38 482.00,424.84 ZM 693.36 403.50 L 693.50 376.50 L 695.89 376.16 C697.20,375.98 698.66,376.43 699.12,377.16 C700.34,379.08 700.23,408.74 699.00,409.50 C698.45,409.84 698.00,411.58 698.00,413.36 C698.00,415.14 697.63,417.03 697.17,417.55 C696.39,418.45 694.53,424.19 693.63,428.50 C693.40,429.60 693.28,418.35 693.36,403.50 ZM 258.45 391.93 C258.09,391.34 258.82,389.76 260.07,388.43 C263.46,384.82 268.93,385.06 271.81,388.96 C273.02,390.59 274.00,392.16 274.00,392.46 C274.00,393.51 259.12,393.00 258.45,391.93 ZM 245.00 375.00 C245.00,371.04 246.06,370.11 248.69,371.79 C249.59,372.36 249.49,373.34 248.31,375.77 C246.21,380.12 245.00,379.84 245.00,375.00 ZM 272.26 375.52 C271.27,374.39 271.34,373.80 272.59,372.56 C273.71,371.43 276.17,371.00 281.49,371.00 C291.75,371.00 294.45,372.42 290.25,375.61 C287.80,377.47 273.92,377.40 272.26,375.52 ZM 291.64 362.00 C288.39,358.72 273.00,358.09 269.38,361.10 C267.29,362.83 258.12,362.55 256.27,360.70 C255.36,359.79 254.97,358.70 255.39,358.27 C255.82,357.85 267.88,357.37 282.19,357.20 C308.46,356.90 319.55,357.85 318.72,360.33 C318.30,361.57 313.51,361.36 311.06,360.01 C309.66,359.23 302.85,361.71 302.17,363.25 C301.47,364.83 293.50,363.88 291.64,362.00 Z" fill="rgb(225,226,225)"/>
</g>
</svg>
