<svg width="800" height="400" viewBox="0 0 800 400" xmlns="http://www.w3.org/2000/svg">
  <defs>
    <linearGradient id="chromeGradient" x1="0%" y1="0%" x2="0%" y2="100%">
      <stop offset="0%" style="stop-color:#FFFFFF;stop-opacity:1" />
      <stop offset="20%" style="stop-color:#D1D3D4;stop-opacity:1" />
      <stop offset="50%" style="stop-color:#A7A9AC;stop-opacity:1" />
      <stop offset="80%" style="stop-color:#D1D3D4;stop-opacity:1" />
      <stop offset="100%" style="stop-color:#808285;stop-opacity:1" />
    </linearGradient>
    
    <filter id="depth" x="-20%" y="-20%" width="140%" height="140%">
      <feGaussianBlur in="SourceAlpha" stdDeviation="2" />
      <feOffset dx="1" dy="1" result="offsetblur" />
      <feComponentTransfer>
        <feFuncA type="linear" slope="0.5" />
      </feComponentTransfer>
      <feMerge>
        <feMergeNode />
        <feMergeNode in="SourceGraphic" />
      </feMerge>
    </filter>
  </defs>

  <rect width="800" height="400" fill="#000000" />

  <g transform="translate(150, 80)" filter="url(#depth)">
    <path d="M60 20 H20 Q10 20 10 30 V130 Q10 140 20 140 H60 Q70 140 70 130 V120 H50 V120 Q50 125 45 125 H30 Q25 125 25 120 V40 Q25 35 30 35 H60 V20 Z" fill="url(#chromeGradient)" />
    
    <path d="M180 20 C110 20 90 80 90 80 C90 80 110 140 180 140 C220 140 250 110 270 80 C290 50 320 20 360 20 H420 V35 H360 C330 35 310 60 290 85 C270 115 230 155 180 155 C100 155 75 80 75 80 C75 80 100 5 180 5 C230 5 260 40 280 70 L285 65 C265 30 230 5 180 5 Z" fill="url(#chromeGradient)" />
    
    <path d="M440 20 H460 V125 H510 Q520 125 520 130 V140 H440 Q430 140 430 130 V30 Q430 20 440 20 Z" fill="url(#chromeGradient)" />
    
    <rect x="345" y="75" width="75" height="15" fill="url(#chromeGradient)" />
  </g>

  <text x="400" y="340" font-family="Arial, sans-serif" font-size="28" fill="#FFFFFF" text-anchor="middle" letter-spacing="8">THINK PLAN EXECUTE</text>
</svg>
